<mxfile host="app.diagrams.net" modified="2020-09-25T08:56:39.133Z" agent="5.0 (Windows NT 10.0; Win64; x64) AppleWebKit/537.36 (KHTML, like Gecko) Chrome/85.0.4183.102 Safari/537.36" etag="xfF62rOi_yHOdBrA4crM" version="13.7.5" type="github">
  <diagram id="kgpKYQtTHZ0yAKxKKP6v" name="Page-1">
    <mxGraphModel dx="1422" dy="783" grid="0" gridSize="10" guides="1" tooltips="1" connect="1" arrows="1" fold="1" page="1" pageScale="1" pageWidth="1100" pageHeight="850" background="#ffffff" math="0" shadow="0">
      <root>
        <mxCell id="0" />
        <mxCell id="1" parent="0" />
        <mxCell id="LkClCWV3-tZvklI0jkfO-49" value="Utilisateur Connecté" style="shape=umlFrame;whiteSpace=wrap;html=1;fillColor=none;width=60;height=50;" parent="1" vertex="1">
          <mxGeometry x="10" y="250" width="560" height="320" as="geometry" />
        </mxCell>
        <mxCell id="LkClCWV3-tZvklI0jkfO-1" value="Joueur" style="shape=umlActor;verticalLabelPosition=bottom;verticalAlign=top;html=1;outlineConnect=0;" parent="1" vertex="1">
          <mxGeometry x="70" y="10" width="30" height="60" as="geometry" />
        </mxCell>
        <mxCell id="LkClCWV3-tZvklI0jkfO-3" value="Connexion()" style="verticalAlign=bottom;endArrow=block;entryX=0;entryY=0;shadow=0;strokeWidth=1;" parent="1" edge="1">
          <mxGeometry relative="1" as="geometry">
            <mxPoint x="80" y="127" as="sourcePoint" />
            <mxPoint x="260" y="127.00000000000011" as="targetPoint" />
          </mxGeometry>
        </mxCell>
        <mxCell id="LkClCWV3-tZvklI0jkfO-4" value="return" style="verticalAlign=bottom;endArrow=open;dashed=1;endSize=8;shadow=0;strokeWidth=1;entryX=1.2;entryY=0.714;entryDx=0;entryDy=0;entryPerimeter=0;" parent="1" edge="1" target="LkClCWV3-tZvklI0jkfO-11" source="NwIOa7d9pvwit4-bKOf0-4">
          <mxGeometry relative="1" as="geometry">
            <mxPoint x="270" y="179" as="targetPoint" />
            <mxPoint x="450" y="178.99999999999977" as="sourcePoint" />
          </mxGeometry>
        </mxCell>
        <mxCell id="LkClCWV3-tZvklI0jkfO-6" value="" style="endArrow=none;dashed=1;html=1;" parent="1" edge="1">
          <mxGeometry width="50" height="50" relative="1" as="geometry">
            <mxPoint x="80" y="840" as="sourcePoint" />
            <mxPoint x="80" y="100" as="targetPoint" />
          </mxGeometry>
        </mxCell>
        <mxCell id="LkClCWV3-tZvklI0jkfO-10" value="" style="endArrow=none;dashed=1;html=1;" parent="1" source="LkClCWV3-tZvklI0jkfO-11" edge="1">
          <mxGeometry width="50" height="50" relative="1" as="geometry">
            <mxPoint x="265" y="350" as="sourcePoint" />
            <mxPoint x="265" y="80" as="targetPoint" />
          </mxGeometry>
        </mxCell>
        <mxCell id="LkClCWV3-tZvklI0jkfO-11" value="" style="points=[];perimeter=orthogonalPerimeter;rounded=0;shadow=0;strokeWidth=1;" parent="1" vertex="1">
          <mxGeometry x="260" y="123" width="10" height="63" as="geometry" />
        </mxCell>
        <mxCell id="LkClCWV3-tZvklI0jkfO-12" value="" style="endArrow=none;dashed=1;html=1;" parent="1" source="NwIOa7d9pvwit4-bKOf0-10" target="LkClCWV3-tZvklI0jkfO-11" edge="1">
          <mxGeometry width="50" height="50" relative="1" as="geometry">
            <mxPoint x="265" y="660" as="sourcePoint" />
            <mxPoint x="265" y="80" as="targetPoint" />
          </mxGeometry>
        </mxCell>
        <mxCell id="LkClCWV3-tZvklI0jkfO-13" value=":Base de données" style="rounded=0;whiteSpace=wrap;html=1;" parent="1" vertex="1">
          <mxGeometry x="475" y="39" width="80" height="50" as="geometry" />
        </mxCell>
        <mxCell id="LkClCWV3-tZvklI0jkfO-15" value="" style="endArrow=none;dashed=1;html=1;" parent="1" source="NwIOa7d9pvwit4-bKOf0-4" edge="1">
          <mxGeometry width="50" height="50" relative="1" as="geometry">
            <mxPoint x="515" y="350" as="sourcePoint" />
            <mxPoint x="515" y="88" as="targetPoint" />
          </mxGeometry>
        </mxCell>
        <mxCell id="LkClCWV3-tZvklI0jkfO-17" value="" style="endArrow=none;dashed=1;html=1;" parent="1" edge="1">
          <mxGeometry width="50" height="50" relative="1" as="geometry">
            <mxPoint x="515" y="800" as="sourcePoint" />
            <mxPoint x="515" y="320" as="targetPoint" />
          </mxGeometry>
        </mxCell>
        <mxCell id="LkClCWV3-tZvklI0jkfO-18" value=":Systeme" style="rounded=0;whiteSpace=wrap;html=1;" parent="1" vertex="1">
          <mxGeometry x="225" y="36" width="80" height="50" as="geometry" />
        </mxCell>
        <mxCell id="LkClCWV3-tZvklI0jkfO-26" value="Créer Compte()" style="verticalAlign=bottom;endArrow=block;entryX=0;entryY=0;shadow=0;strokeWidth=1;" parent="1" edge="1">
          <mxGeometry relative="1" as="geometry">
            <mxPoint x="80" y="210" as="sourcePoint" />
            <mxPoint x="260" y="210.0000000000001" as="targetPoint" />
          </mxGeometry>
        </mxCell>
        <mxCell id="LkClCWV3-tZvklI0jkfO-27" value="return" style="verticalAlign=bottom;endArrow=open;dashed=1;endSize=8;exitX=0;exitY=0.95;shadow=0;strokeWidth=1;" parent="1" edge="1">
          <mxGeometry relative="1" as="geometry">
            <mxPoint x="80" y="240" as="targetPoint" />
            <mxPoint x="260" y="239.99999999999977" as="sourcePoint" />
          </mxGeometry>
        </mxCell>
        <mxCell id="LkClCWV3-tZvklI0jkfO-28" value="" style="points=[];perimeter=orthogonalPerimeter;rounded=0;shadow=0;strokeWidth=1;" parent="1" vertex="1">
          <mxGeometry x="260" y="207" width="10" height="33" as="geometry" />
        </mxCell>
        <mxCell id="LkClCWV3-tZvklI0jkfO-30" value="Démarrer partie()" style="verticalAlign=bottom;endArrow=block;shadow=0;strokeWidth=1;" parent="1" edge="1">
          <mxGeometry relative="1" as="geometry">
            <mxPoint x="80" y="280" as="sourcePoint" />
            <mxPoint x="265" y="280" as="targetPoint" />
            <Array as="points" />
            <mxPoint as="offset" />
          </mxGeometry>
        </mxCell>
        <mxCell id="LkClCWV3-tZvklI0jkfO-31" value="return" style="verticalAlign=bottom;endArrow=open;dashed=1;endSize=8;shadow=0;strokeWidth=1;" parent="1" source="NwIOa7d9pvwit4-bKOf0-10" edge="1">
          <mxGeometry relative="1" as="geometry">
            <mxPoint x="80" y="320" as="targetPoint" />
            <mxPoint x="510" y="320" as="sourcePoint" />
          </mxGeometry>
        </mxCell>
        <mxCell id="LkClCWV3-tZvklI0jkfO-35" value="" style="points=[];perimeter=orthogonalPerimeter;rounded=0;shadow=0;strokeWidth=1;" parent="1" vertex="1">
          <mxGeometry x="510" y="432" width="10" height="33" as="geometry" />
        </mxCell>
        <mxCell id="LkClCWV3-tZvklI0jkfO-40" value="" style="points=[];perimeter=orthogonalPerimeter;rounded=0;shadow=0;strokeWidth=1;" parent="1" vertex="1">
          <mxGeometry x="260" y="520" width="10" height="30" as="geometry" />
        </mxCell>
        <mxCell id="LkClCWV3-tZvklI0jkfO-43" value="" style="endArrow=none;dashed=1;html=1;" parent="1" target="LkClCWV3-tZvklI0jkfO-40" edge="1">
          <mxGeometry width="50" height="50" relative="1" as="geometry">
            <mxPoint x="265" y="840" as="sourcePoint" />
            <mxPoint x="265" y="170" as="targetPoint" />
          </mxGeometry>
        </mxCell>
        <mxCell id="LkClCWV3-tZvklI0jkfO-45" value="return" style="verticalAlign=bottom;endArrow=open;dashed=1;endSize=8;exitX=1.3;exitY=1.033;shadow=0;strokeWidth=1;exitDx=0;exitDy=0;exitPerimeter=0;" parent="1" source="LkClCWV3-tZvklI0jkfO-40" edge="1">
          <mxGeometry relative="1" as="geometry">
            <mxPoint x="510" y="551" as="targetPoint" />
            <mxPoint x="520" y="490" as="sourcePoint" />
          </mxGeometry>
        </mxCell>
        <mxCell id="LkClCWV3-tZvklI0jkfO-47" value="Sauvegarde()" style="verticalAlign=bottom;endArrow=block;entryX=1;entryY=0;shadow=0;strokeWidth=1;entryDx=0;entryDy=0;entryPerimeter=0;" parent="1" target="LkClCWV3-tZvklI0jkfO-40" edge="1">
          <mxGeometry relative="1" as="geometry">
            <mxPoint x="510" y="520" as="sourcePoint" />
            <mxPoint x="520" y="450" as="targetPoint" />
            <Array as="points" />
            <mxPoint as="offset" />
          </mxGeometry>
        </mxCell>
        <mxCell id="LkClCWV3-tZvklI0jkfO-59" value="Invité" style="shape=umlFrame;whiteSpace=wrap;html=1;fillColor=none;width=60;height=50;" parent="1" vertex="1">
          <mxGeometry x="10" y="580" width="560" height="260" as="geometry" />
        </mxCell>
        <mxCell id="NwIOa7d9pvwit4-bKOf0-3" value="Vérifier_exist_account()" style="verticalAlign=bottom;endArrow=block;entryX=0.3;entryY=0.038;shadow=0;strokeWidth=1;entryDx=0;entryDy=0;entryPerimeter=0;" edge="1" parent="1" target="NwIOa7d9pvwit4-bKOf0-4">
          <mxGeometry relative="1" as="geometry">
            <mxPoint x="270" y="136" as="sourcePoint" />
            <mxPoint x="450" y="137.0000000000001" as="targetPoint" />
          </mxGeometry>
        </mxCell>
        <mxCell id="NwIOa7d9pvwit4-bKOf0-4" value="" style="points=[];perimeter=orthogonalPerimeter;rounded=0;shadow=0;strokeWidth=1;" vertex="1" parent="1">
          <mxGeometry x="510" y="134.5" width="10" height="40" as="geometry" />
        </mxCell>
        <mxCell id="NwIOa7d9pvwit4-bKOf0-5" value="" style="endArrow=none;dashed=1;html=1;" edge="1" parent="1" target="NwIOa7d9pvwit4-bKOf0-4">
          <mxGeometry width="50" height="50" relative="1" as="geometry">
            <mxPoint x="515" y="326" as="sourcePoint" />
            <mxPoint x="515" y="88" as="targetPoint" />
          </mxGeometry>
        </mxCell>
        <mxCell id="NwIOa7d9pvwit4-bKOf0-6" value="return" style="verticalAlign=bottom;endArrow=open;dashed=1;endSize=8;exitX=0;exitY=0.95;shadow=0;strokeWidth=1;" edge="1" parent="1">
          <mxGeometry relative="1" as="geometry">
            <mxPoint x="80" y="183" as="targetPoint" />
            <mxPoint x="260" y="182.99999999999977" as="sourcePoint" />
          </mxGeometry>
        </mxCell>
        <mxCell id="NwIOa7d9pvwit4-bKOf0-7" value="Create_account_db()" style="verticalAlign=bottom;endArrow=block;entryX=0;entryY=0;shadow=0;strokeWidth=1;" edge="1" parent="1">
          <mxGeometry relative="1" as="geometry">
            <mxPoint x="265" y="207" as="sourcePoint" />
            <mxPoint x="510" y="207.0000000000001" as="targetPoint" />
          </mxGeometry>
        </mxCell>
        <mxCell id="NwIOa7d9pvwit4-bKOf0-8" value="return" style="verticalAlign=bottom;endArrow=open;dashed=1;endSize=8;exitX=0;exitY=0.95;shadow=0;strokeWidth=1;entryX=1;entryY=0.9;entryDx=0;entryDy=0;entryPerimeter=0;" edge="1" parent="1" target="LkClCWV3-tZvklI0jkfO-28">
          <mxGeometry relative="1" as="geometry">
            <mxPoint x="330" y="237" as="targetPoint" />
            <mxPoint x="510" y="236.99999999999977" as="sourcePoint" />
          </mxGeometry>
        </mxCell>
        <mxCell id="NwIOa7d9pvwit4-bKOf0-9" value="" style="points=[];perimeter=orthogonalPerimeter;rounded=0;shadow=0;strokeWidth=1;" vertex="1" parent="1">
          <mxGeometry x="510" y="207" width="10" height="30" as="geometry" />
        </mxCell>
        <mxCell id="NwIOa7d9pvwit4-bKOf0-10" value="" style="points=[];perimeter=orthogonalPerimeter;rounded=0;shadow=0;strokeWidth=1;" vertex="1" parent="1">
          <mxGeometry x="260" y="282" width="10" height="40" as="geometry" />
        </mxCell>
        <mxCell id="NwIOa7d9pvwit4-bKOf0-11" value="" style="endArrow=none;dashed=1;html=1;" edge="1" parent="1" source="NwIOa7d9pvwit4-bKOf0-17" target="NwIOa7d9pvwit4-bKOf0-10">
          <mxGeometry width="50" height="50" relative="1" as="geometry">
            <mxPoint x="265" y="520" as="sourcePoint" />
            <mxPoint x="265" y="186" as="targetPoint" />
          </mxGeometry>
        </mxCell>
        <mxCell id="NwIOa7d9pvwit4-bKOf0-12" value="Choose_game()" style="verticalAlign=bottom;endArrow=block;shadow=0;strokeWidth=1;entryX=0.2;entryY=0.02;entryDx=0;entryDy=0;entryPerimeter=0;" edge="1" parent="1" target="NwIOa7d9pvwit4-bKOf0-14">
          <mxGeometry relative="1" as="geometry">
            <mxPoint x="80" y="351" as="sourcePoint" />
            <mxPoint x="265" y="354" as="targetPoint" />
            <Array as="points" />
            <mxPoint as="offset" />
          </mxGeometry>
        </mxCell>
        <mxCell id="NwIOa7d9pvwit4-bKOf0-13" value="return" style="verticalAlign=bottom;endArrow=open;dashed=1;endSize=8;shadow=0;strokeWidth=1;" edge="1" parent="1" source="NwIOa7d9pvwit4-bKOf0-14">
          <mxGeometry relative="1" as="geometry">
            <mxPoint x="80" y="394" as="targetPoint" />
            <mxPoint x="510" y="394" as="sourcePoint" />
          </mxGeometry>
        </mxCell>
        <mxCell id="NwIOa7d9pvwit4-bKOf0-14" value="" style="points=[];perimeter=orthogonalPerimeter;rounded=0;shadow=0;strokeWidth=1;" vertex="1" parent="1">
          <mxGeometry x="260" y="350" width="10" height="49" as="geometry" />
        </mxCell>
        <mxCell id="NwIOa7d9pvwit4-bKOf0-15" value="Init_new_game()" style="verticalAlign=bottom;endArrow=block;entryX=0;entryY=0;shadow=0;strokeWidth=1;" edge="1" parent="1">
          <mxGeometry relative="1" as="geometry">
            <mxPoint x="267" y="434" as="sourcePoint" />
            <mxPoint x="512" y="434.0000000000001" as="targetPoint" />
          </mxGeometry>
        </mxCell>
        <mxCell id="NwIOa7d9pvwit4-bKOf0-16" value="return" style="verticalAlign=bottom;endArrow=open;dashed=1;endSize=8;exitX=0;exitY=0.95;shadow=0;strokeWidth=1;entryX=1;entryY=0.9;entryDx=0;entryDy=0;entryPerimeter=0;" edge="1" parent="1">
          <mxGeometry relative="1" as="geometry">
            <mxPoint x="267" y="465.00000000000006" as="targetPoint" />
            <mxPoint x="507" y="465.2999999999998" as="sourcePoint" />
          </mxGeometry>
        </mxCell>
        <mxCell id="NwIOa7d9pvwit4-bKOf0-17" value="" style="points=[];perimeter=orthogonalPerimeter;rounded=0;shadow=0;strokeWidth=1;" vertex="1" parent="1">
          <mxGeometry x="260" y="424" width="10" height="49" as="geometry" />
        </mxCell>
        <mxCell id="NwIOa7d9pvwit4-bKOf0-18" value="" style="endArrow=none;dashed=1;html=1;" edge="1" parent="1" source="LkClCWV3-tZvklI0jkfO-40" target="NwIOa7d9pvwit4-bKOf0-17">
          <mxGeometry width="50" height="50" relative="1" as="geometry">
            <mxPoint x="265" y="520" as="sourcePoint" />
            <mxPoint x="265" y="322" as="targetPoint" />
          </mxGeometry>
        </mxCell>
        <mxCell id="NwIOa7d9pvwit4-bKOf0-19" value="Choose_player_num()" style="verticalAlign=bottom;endArrow=block;shadow=0;strokeWidth=1;entryX=0.2;entryY=0.02;entryDx=0;entryDy=0;entryPerimeter=0;" edge="1" parent="1">
          <mxGeometry relative="1" as="geometry">
            <mxPoint x="78" y="428.02" as="sourcePoint" />
            <mxPoint x="260" y="428" as="targetPoint" />
            <Array as="points" />
            <mxPoint as="offset" />
          </mxGeometry>
        </mxCell>
        <mxCell id="NwIOa7d9pvwit4-bKOf0-20" value="return" style="verticalAlign=bottom;endArrow=open;dashed=1;endSize=8;shadow=0;strokeWidth=1;" edge="1" parent="1">
          <mxGeometry relative="1" as="geometry">
            <mxPoint x="77" y="470" as="targetPoint" />
            <mxPoint x="257" y="470" as="sourcePoint" />
          </mxGeometry>
        </mxCell>
        <mxCell id="NwIOa7d9pvwit4-bKOf0-21" value="Démarrer partie()" style="verticalAlign=bottom;endArrow=block;shadow=0;strokeWidth=1;" edge="1" parent="1">
          <mxGeometry relative="1" as="geometry">
            <mxPoint x="82" y="605" as="sourcePoint" />
            <mxPoint x="267" y="605" as="targetPoint" />
            <Array as="points" />
            <mxPoint as="offset" />
          </mxGeometry>
        </mxCell>
        <mxCell id="NwIOa7d9pvwit4-bKOf0-22" value="return" style="verticalAlign=bottom;endArrow=open;dashed=1;endSize=8;shadow=0;strokeWidth=1;" edge="1" parent="1" source="NwIOa7d9pvwit4-bKOf0-24">
          <mxGeometry relative="1" as="geometry">
            <mxPoint x="82" y="645" as="targetPoint" />
            <mxPoint x="512" y="645" as="sourcePoint" />
          </mxGeometry>
        </mxCell>
        <mxCell id="NwIOa7d9pvwit4-bKOf0-23" value="" style="points=[];perimeter=orthogonalPerimeter;rounded=0;shadow=0;strokeWidth=1;" vertex="1" parent="1">
          <mxGeometry x="512" y="757" width="10" height="33" as="geometry" />
        </mxCell>
        <mxCell id="NwIOa7d9pvwit4-bKOf0-24" value="" style="points=[];perimeter=orthogonalPerimeter;rounded=0;shadow=0;strokeWidth=1;" vertex="1" parent="1">
          <mxGeometry x="262" y="607" width="10" height="40" as="geometry" />
        </mxCell>
        <mxCell id="NwIOa7d9pvwit4-bKOf0-25" value="" style="endArrow=none;dashed=1;html=1;" edge="1" parent="1" source="NwIOa7d9pvwit4-bKOf0-31" target="NwIOa7d9pvwit4-bKOf0-24">
          <mxGeometry width="50" height="50" relative="1" as="geometry">
            <mxPoint x="267" y="845" as="sourcePoint" />
            <mxPoint x="267" y="511" as="targetPoint" />
          </mxGeometry>
        </mxCell>
        <mxCell id="NwIOa7d9pvwit4-bKOf0-26" value="Choose_game()" style="verticalAlign=bottom;endArrow=block;shadow=0;strokeWidth=1;entryX=0.2;entryY=0.02;entryDx=0;entryDy=0;entryPerimeter=0;" edge="1" parent="1" target="NwIOa7d9pvwit4-bKOf0-28">
          <mxGeometry relative="1" as="geometry">
            <mxPoint x="82" y="676" as="sourcePoint" />
            <mxPoint x="267" y="679" as="targetPoint" />
            <Array as="points" />
            <mxPoint as="offset" />
          </mxGeometry>
        </mxCell>
        <mxCell id="NwIOa7d9pvwit4-bKOf0-27" value="return" style="verticalAlign=bottom;endArrow=open;dashed=1;endSize=8;shadow=0;strokeWidth=1;" edge="1" parent="1" source="NwIOa7d9pvwit4-bKOf0-28">
          <mxGeometry relative="1" as="geometry">
            <mxPoint x="82" y="719" as="targetPoint" />
            <mxPoint x="512" y="719" as="sourcePoint" />
          </mxGeometry>
        </mxCell>
        <mxCell id="NwIOa7d9pvwit4-bKOf0-28" value="" style="points=[];perimeter=orthogonalPerimeter;rounded=0;shadow=0;strokeWidth=1;" vertex="1" parent="1">
          <mxGeometry x="262" y="675" width="10" height="49" as="geometry" />
        </mxCell>
        <mxCell id="NwIOa7d9pvwit4-bKOf0-29" value="Init_new_game()" style="verticalAlign=bottom;endArrow=block;entryX=0;entryY=0;shadow=0;strokeWidth=1;" edge="1" parent="1">
          <mxGeometry relative="1" as="geometry">
            <mxPoint x="269" y="759" as="sourcePoint" />
            <mxPoint x="514" y="759" as="targetPoint" />
          </mxGeometry>
        </mxCell>
        <mxCell id="NwIOa7d9pvwit4-bKOf0-30" value="return" style="verticalAlign=bottom;endArrow=open;dashed=1;endSize=8;exitX=0;exitY=0.95;shadow=0;strokeWidth=1;entryX=1;entryY=0.9;entryDx=0;entryDy=0;entryPerimeter=0;" edge="1" parent="1">
          <mxGeometry relative="1" as="geometry">
            <mxPoint x="269" y="790" as="targetPoint" />
            <mxPoint x="509" y="790.2999999999997" as="sourcePoint" />
          </mxGeometry>
        </mxCell>
        <mxCell id="NwIOa7d9pvwit4-bKOf0-31" value="" style="points=[];perimeter=orthogonalPerimeter;rounded=0;shadow=0;strokeWidth=1;" vertex="1" parent="1">
          <mxGeometry x="262" y="749" width="10" height="49" as="geometry" />
        </mxCell>
        <mxCell id="NwIOa7d9pvwit4-bKOf0-32" value="Choose_player_num()" style="verticalAlign=bottom;endArrow=block;shadow=0;strokeWidth=1;entryX=0.2;entryY=0.02;entryDx=0;entryDy=0;entryPerimeter=0;" edge="1" parent="1">
          <mxGeometry relative="1" as="geometry">
            <mxPoint x="80" y="753.02" as="sourcePoint" />
            <mxPoint x="262" y="753" as="targetPoint" />
            <Array as="points" />
            <mxPoint as="offset" />
          </mxGeometry>
        </mxCell>
        <mxCell id="NwIOa7d9pvwit4-bKOf0-33" value="return" style="verticalAlign=bottom;endArrow=open;dashed=1;endSize=8;shadow=0;strokeWidth=1;" edge="1" parent="1">
          <mxGeometry relative="1" as="geometry">
            <mxPoint x="79" y="795" as="targetPoint" />
            <mxPoint x="259" y="795" as="sourcePoint" />
          </mxGeometry>
        </mxCell>
      </root>
    </mxGraphModel>
  </diagram>
</mxfile>
